<mxfile host="app.diagrams.net" agent="Mozilla/5.0 (X11; Linux x86_64) AppleWebKit/537.36 (KHTML, like Gecko) Chrome/133.0.0.0 Safari/537.36" version="26.1.0">
  <diagram name="Page-1" id="YUvxiQVnnKgOzbH7Yyir">
    <mxGraphModel dx="1520" dy="838" grid="0" gridSize="10" guides="1" tooltips="1" connect="1" arrows="1" fold="1" page="1" pageScale="1" pageWidth="1800" pageHeight="1800" background="light-dark(#FFFFFF,#FFFFFF)" math="0" shadow="0">
      <root>
        <mxCell id="0" />
        <mxCell id="1" parent="0" />
        <mxCell id="gzwCgdqreQGhpecsWad8-81" value="" style="group" vertex="1" connectable="0" parent="1">
          <mxGeometry x="775" y="499" width="658" height="701" as="geometry" />
        </mxCell>
        <mxCell id="gzwCgdqreQGhpecsWad8-3" value="" style="rounded=1;whiteSpace=wrap;html=1;strokeWidth=3;fillColor=light-dark(#A20025,#E2F5FF);fontColor=#ffffff;strokeColor=light-dark(#6F0000, #2c2b2b);dashed=1;fillStyle=solid;" vertex="1" parent="gzwCgdqreQGhpecsWad8-81">
          <mxGeometry width="277.0526315789474" height="262" as="geometry" />
        </mxCell>
        <mxCell id="gzwCgdqreQGhpecsWad8-4" value="US" style="rounded=1;whiteSpace=wrap;html=1;fillColor=light-dark(#FFFFFF,#F9FFFD);gradientColor=none;fillStyle=auto;" vertex="1" parent="gzwCgdqreQGhpecsWad8-81">
          <mxGeometry x="25.973684210526315" y="23.81818181818182" width="77.92105263157895" height="59.54545454545455" as="geometry" />
        </mxCell>
        <mxCell id="gzwCgdqreQGhpecsWad8-5" value="" style="rounded=1;whiteSpace=wrap;html=1;fillColor=light-dark(#FFFFFF,#FCFFFD);" vertex="1" parent="gzwCgdqreQGhpecsWad8-81">
          <mxGeometry x="173.1578947368421" y="23.81818181818182" width="77.92105263157895" height="59.54545454545455" as="geometry" />
        </mxCell>
        <mxCell id="gzwCgdqreQGhpecsWad8-6" value="" style="rounded=1;whiteSpace=wrap;html=1;fillColor=light-dark(#FFFFFF,#FFFFFF);" vertex="1" parent="gzwCgdqreQGhpecsWad8-81">
          <mxGeometry x="173.1578947368421" y="107.18181818181819" width="77.92105263157895" height="59.54545454545455" as="geometry" />
        </mxCell>
        <mxCell id="gzwCgdqreQGhpecsWad8-7" value="" style="rounded=1;whiteSpace=wrap;html=1;fillColor=light-dark(#FFFFFF,#FFFFFF);" vertex="1" parent="gzwCgdqreQGhpecsWad8-81">
          <mxGeometry x="25.973684210526315" y="107.18181818181819" width="77.92105263157895" height="59.54545454545455" as="geometry" />
        </mxCell>
        <mxCell id="gzwCgdqreQGhpecsWad8-8" value="" style="rounded=1;whiteSpace=wrap;html=1;fillColor=light-dark(#FFFFFF,#FFFFFF);" vertex="1" parent="gzwCgdqreQGhpecsWad8-81">
          <mxGeometry x="34.631578947368425" y="190.54545454545456" width="216.44736842105263" height="59.54545454545455" as="geometry" />
        </mxCell>
        <mxCell id="gzwCgdqreQGhpecsWad8-10" value="" style="shape=cylinder3;whiteSpace=wrap;html=1;boundedLbl=1;backgroundOutline=1;size=15;fillColor=light-dark(#FFFFFF, #f20707);strokeColor=light-dark(#000000,#000000);dashed=1;sketch=1;curveFitting=1;jiggle=2;snapToPoint=0;fixDash=0;collapsible=0;fillStyle=zigzag;" vertex="1" parent="gzwCgdqreQGhpecsWad8-81">
          <mxGeometry x="458.8684210526316" y="59.54545454545455" width="112.55263157894737" height="131" as="geometry" />
        </mxCell>
        <mxCell id="gzwCgdqreQGhpecsWad8-13" value="" style="endArrow=classic;html=1;rounded=0;entryX=0;entryY=0;entryDx=0;entryDy=35;entryPerimeter=0;strokeColor=light-dark(#A20025,#FF052E);strokeWidth=4;dashed=1;dashPattern=1 1;flowAnimation=1;exitX=0.989;exitY=0.385;exitDx=0;exitDy=0;exitPerimeter=0;" edge="1" parent="gzwCgdqreQGhpecsWad8-81" source="gzwCgdqreQGhpecsWad8-3" target="gzwCgdqreQGhpecsWad8-10">
          <mxGeometry width="50" height="50" relative="1" as="geometry">
            <mxPoint x="281.38157894736844" y="107.18181818181819" as="sourcePoint" />
            <mxPoint x="324.67105263157896" y="47.63636363636364" as="targetPoint" />
          </mxGeometry>
        </mxCell>
        <mxCell id="gzwCgdqreQGhpecsWad8-14" value="" style="endArrow=classic;html=1;rounded=0;entryX=0;entryY=0;entryDx=0;entryDy=35;entryPerimeter=0;strokeColor=light-dark(#A20025,#FF052E);strokeWidth=4;dashed=1;dashPattern=1 1;flowAnimation=1;" edge="1" parent="gzwCgdqreQGhpecsWad8-81">
          <mxGeometry width="50" height="50" relative="1" as="geometry">
            <mxPoint x="458.8684210526316" y="154.8181818181818" as="sourcePoint" />
            <mxPoint x="281.38157894736844" y="160.77272727272728" as="targetPoint" />
          </mxGeometry>
        </mxCell>
        <mxCell id="gzwCgdqreQGhpecsWad8-18" value="&lt;h5&gt;&lt;font face=&quot;Garamond&quot; style=&quot;color: light-dark(rgb(0, 0, 0), rgb(0, 0, 0)); font-size: 13px;&quot;&gt;&lt;i style=&quot;&quot;&gt;USER&lt;/i&gt;&lt;/font&gt;&lt;/h5&gt;" style="text;strokeColor=none;align=center;fillColor=none;html=1;verticalAlign=middle;whiteSpace=wrap;rounded=0;" vertex="1" parent="gzwCgdqreQGhpecsWad8-81">
          <mxGeometry x="34.631578947368425" y="35.72727272727273" width="51.94736842105263" height="35.72727272727273" as="geometry" />
        </mxCell>
        <mxCell id="gzwCgdqreQGhpecsWad8-20" value="&lt;h5&gt;&lt;font face=&quot;Garamond&quot; style=&quot;color: light-dark(rgb(0, 0, 0), rgb(0, 0, 0)); font-size: 13px;&quot;&gt;&lt;i style=&quot;&quot;&gt;PRODUCT&lt;/i&gt;&lt;/font&gt;&lt;/h5&gt;" style="text;strokeColor=none;align=center;fillColor=none;html=1;verticalAlign=middle;whiteSpace=wrap;rounded=0;" vertex="1" parent="gzwCgdqreQGhpecsWad8-81">
          <mxGeometry x="186.14473684210526" y="35.72727272727273" width="51.94736842105263" height="35.72727272727273" as="geometry" />
        </mxCell>
        <mxCell id="gzwCgdqreQGhpecsWad8-21" value="&lt;h5&gt;&lt;font face=&quot;Garamond&quot;&gt;&lt;span style=&quot;font-size: 13px;&quot;&gt;&lt;i&gt;ORDER&lt;/i&gt;&lt;/span&gt;&lt;/font&gt;&lt;/h5&gt;" style="text;strokeColor=none;align=center;fillColor=none;html=1;verticalAlign=middle;whiteSpace=wrap;rounded=0;fontColor=light-dark(#000000,#121212);" vertex="1" parent="gzwCgdqreQGhpecsWad8-81">
          <mxGeometry x="34.631578947368425" y="119.0909090909091" width="51.94736842105263" height="35.72727272727273" as="geometry" />
        </mxCell>
        <mxCell id="gzwCgdqreQGhpecsWad8-22" value="&lt;h5&gt;&lt;font face=&quot;Garamond&quot;&gt;&lt;span&gt;&lt;i&gt;DATABASE&lt;/i&gt;&lt;/span&gt;&lt;/font&gt;&lt;/h5&gt;" style="text;strokeColor=none;align=center;fillColor=none;html=1;verticalAlign=middle;whiteSpace=wrap;rounded=0;fontColor=light-dark(#000000,#141414);fontSize=19;fontStyle=1" vertex="1" parent="gzwCgdqreQGhpecsWad8-81">
          <mxGeometry x="489.17105263157896" y="119.0909090909091" width="51.94736842105263" height="35.72727272727273" as="geometry" />
        </mxCell>
        <mxCell id="gzwCgdqreQGhpecsWad8-23" value="&lt;h5&gt;&lt;font face=&quot;Garamond&quot;&gt;&lt;span style=&quot;font-size: 13px;&quot;&gt;&lt;i&gt;AUTH&lt;/i&gt;&lt;/span&gt;&lt;/font&gt;&lt;/h5&gt;" style="text;strokeColor=none;align=center;fillColor=none;html=1;verticalAlign=middle;whiteSpace=wrap;rounded=0;fontColor=light-dark(#000000,#171717);" vertex="1" parent="gzwCgdqreQGhpecsWad8-81">
          <mxGeometry x="186.14473684210526" y="119.0909090909091" width="51.94736842105263" height="35.72727272727273" as="geometry" />
        </mxCell>
        <mxCell id="gzwCgdqreQGhpecsWad8-24" value="&lt;h5&gt;&lt;font face=&quot;Garamond&quot;&gt;&lt;span style=&quot;font-size: 13px;&quot;&gt;&lt;i&gt;NOTIFICATION&lt;/i&gt;&lt;/span&gt;&lt;/font&gt;&lt;/h5&gt;" style="text;strokeColor=none;align=center;fillColor=none;html=1;verticalAlign=middle;whiteSpace=wrap;rounded=0;fontColor=light-dark(#000000,#000000);" vertex="1" parent="gzwCgdqreQGhpecsWad8-81">
          <mxGeometry x="86.57894736842105" y="202.45454545454547" width="103.89473684210526" height="35.72727272727273" as="geometry" />
        </mxCell>
        <mxCell id="gzwCgdqreQGhpecsWad8-84" value="" style="shape=stencil(7VjLctpAEPwarlO7O/s8O85/uMo4UCHgwuT192mFErAjuYluOfgmy2o0j+6e0a704W3z9LpeBfd2Oh6+rn9un0+blX5ahbDdb9bH7QlXK31c6cPL4bj+cjx83z+f/359Gp4crr4dfgy/8OuM81lSGVDB/T7fqVl8/nvn8xmw2+57QA0doHlRJYAiIfaAJBroG1rrAVliooCQekCR5AkgieuTbpW/QSWZpJsERwBecrWAQqrUJOfuee+cOPIGZFgXAZKkvCQilbIo5SB+UU3dpMu8aW7SZM6KSzX+kXZOfB9PLVIYJySZ53GH1jP29SlRIokHpO5/P0OYkTFI+/okxF9I/MECYpPGOJ2k9hnEMLJ2HlCl9hzVi3nMUyjYnEOVRnoAQOxJjTI7/gbXsxr2pIR1aLORwSBt0uapDuKY1DwtwLu+DVzGESw2TiGBxJOD/X30gDSteOuN3o3MnQegRb4HKOVRc6LGuhq3azfRMqrmmJvC2gzA06zhVdoPKYXlE+bBfEyZNI51mAeo+J5ICj0RQG1STQ7cADC4jRiGN1QC0NFAbwCOvQHcaLZKbIYUjLWeGxrGur0HMC6MTgcSEgC1zwGWEUlIV5e+ACAIBojijMekMat5QLEOAAuoxAIgiBQtoDC2qqUGQgrE9sDWPEmauQb0YGwPC0cmXILiqqlSk8j0gGFj9AAj4xJtRg/c65G0MSZIlPlMi9YqoYdE2IrG2RwgUWJ9oEZKFsCMDOTTZkNSpmnMq2qTDiRpCMjsYZBoJs4HQDBldaMGFwD4CCpG00ia9CE160uYKGxIJ28HyvU7aH7qemszd9YAAEynh0WDsDW6iZFFGpJCD2ZkeWqVIIKaPlx2xnkAqtRzKXIjg0cY8qHQiXQafTVWiVaybQnblVkp8+VDaB4AifbOVxJfWpudojVIIWXFlusNABOIhPTxQXzZ0T4+iP/rD+Jo8uUHPU7yopMkZ+d5TeOK/N4Hd99gDEe2D4dJPCqB6DKOo/tG+Mxakl3C8Dwb/sUyuno6N9skX/48JBbjkoAgYj8BsIx9nBwW8pL6NMmZ9wzOZb7D7pFi9vySHXvcP/DExfW49GW7251PW2//b49Xcet8NKuPfwA=);lineShape=1;strokeColor=default;" vertex="1" parent="gzwCgdqreQGhpecsWad8-81">
          <mxGeometry x="187.91176172534588" y="318.898946639821" width="28.774553479772496" height="52.59947963041946" as="geometry" />
        </mxCell>
        <mxCell id="gzwCgdqreQGhpecsWad8-111" value="" style="rounded=1;whiteSpace=wrap;html=1;fillStyle=dashed;dashed=1;strokeWidth=1;strokeColor=light-dark(#A20025,#FF052E);sketch=1;curveFitting=1;jiggle=2;" vertex="1" parent="gzwCgdqreQGhpecsWad8-81">
          <mxGeometry x="116.17" y="322.11" width="373" height="60" as="geometry" />
        </mxCell>
        <mxCell id="gzwCgdqreQGhpecsWad8-113" value="&lt;h1&gt;&lt;font style=&quot;color: light-dark(rgb(0, 0, 0), rgb(0, 0, 0));&quot;&gt;MICROSERVICES&lt;/font&gt;&lt;/h1&gt;" style="text;strokeColor=none;align=center;fillColor=none;html=1;verticalAlign=middle;whiteSpace=wrap;rounded=0;" vertex="1" parent="gzwCgdqreQGhpecsWad8-81">
          <mxGeometry x="276.17" y="337.11" width="60" height="30" as="geometry" />
        </mxCell>
        <mxCell id="gzwCgdqreQGhpecsWad8-85" value="" style="shape=stencil(7VjJbhsxDP0aXwmJ1HpO2/8IEKcxmsaBk25/XwqGphY181IDRQ9Fb86ET+L6SHEnNy8Pt8/7HbuX19Px0/7b4e71YSfvdsyHp4f96fCqv3byfic398fT/uPp+OXp7vz3822TbL8+H7+2E76fcd4T14Zi9+P8pRZy5y8fzoDHw9MFIFPIo7ynBOQjcRjkS6RQtuWZyqhPTlTB+UxOBvlUyOdteU95PD95im5b3lGNg3xMlCKSd26UFxJwvnpv9E/I5NO2fKAy2huEgt+WL1TKIC+FKjjfM2UeAdK/rAOiBWiOVGRxJudHAJMAl/op59oRGMCjSs0qkHQ+UR5VqiTAqWqzjRpMCpUvowXcL9zSh5ORdyhomWSMsqcQgHztNdLlHQyZHhfFyAegj7pDvJFHSa0ZI1YfB/QRR5GvkReK5Qp9JJEkay8gFa2pbPVB/gyq/+gfjRfIn6AsYWoM5kNgy0IMazgysckf33lvHVC6fcsFnhzwUMqd9RdaYfLARTlbE5ToBDSCksiNN6hVETipik3SWCkAlWqlPKqUpNf1FqCaZhNg81OAmG4Wu1XrgDy1M6UmwCw12spJqdPxOkAzJ1kAC4hDpeInAIiDBq5ON6ARpATLRmp0BnRXZhuWsWQd4KmM/J4wwTdAtgCHVbI3CKSAsiiwABg28qJzhLeABEhAA2fjwJDlNTXqdAOapTT5ZhsyyCVNbzMNqpc8cGsroAmQ0DjopoFNI8e4qK0RoWu5DiiTThGGumr3CRYAbxA7vmgFeUQbbqKNBI3WZDJjZLsBAaLtKClCrixiR57mJZSu3GfAyziggrgWoC+PbHjGEYP81qdHmYd/kK7aRk3gQuhVu97YdbQe6VsWIlmfTPI0OXgYB55U0tm5ghvabDi69Y3h/C/Mwua18MdnYTvr/Z+F/51ZOCzhvHjbIf/UaYPSh7gt/6SRVbTAClBIAea9rCnuEWCuee4+3gqxabPKAqgdSOwps9BQ6FmyDtDnhBn/K66ybEc2ZUY0/rNYG5QrEdFp3Zs4KFkjo32xxNVWQYi5it1bpDepiE2HKvBVpaVVxki3ngVSQ3PZkJ02ag+ytZH5GLjqYbkJ2+TTIQ69qoSn3UuGDac9HMfU0AkLvao0+cyOUAEVubVaCm5zJVpa5p45FwDU1NoabwJUFDjuW8SFBBzmeV8nv1b4pm9bszgZgQoi9ky4AKBAeFlxE3reti3EtJ2GJXftOvs3APrj1/b8/vD4eF6+X/7fbtv103lTL+9/Ag==);lineShape=1;strokeColor=default;" vertex="1" parent="1">
          <mxGeometry x="1451.558718156954" y="354.7337247202511" width="18.204235473367085" height="87.00781950988964" as="geometry" />
        </mxCell>
        <mxCell id="gzwCgdqreQGhpecsWad8-86" value="" style="shape=stencil(7VlJchsxDHyNriiCGG5nJ/mHqyzHqjiWS3a23weMwtEQHPXEtxx804ImB2A3Fs5Obl4ebp/3O+9eXk/HL/sfh7vXh5182Hl/eHrYnw6v+mknH3dyc3887T+fjt+e7s7fn2+rZf309fi9rvDzjHPkXAV59+v8Q8kU0p9fPp3tHw9PC3smF3t7oWm6bu9JSmefMzFft58o+t7e0+Su2yfyvX0KlON1+0I8dfaxwPXZUco9wFMJAMA09R6HSNlDQOYewCTABQX8fYAGmCIJOIMKkB7AFJDTTKmPkqgPGTttAL6F4VpYSx8ln7cA0vvgA3lBB52MvSeG9r4nNmcqkEiu5wUHeAiFpCeqxsxhh6demZEiEqa6128geP1AoacdU0Ssi1b5DOPPibgPkKOM7DNlZ+wRIepyk7FHz6Ph4GTsHfBX6RWDtQeaUf7yYA/4IM7G3xEDf1VQcYgPWn8isesnwB9RPhiCEoP4aEYw8dScgp4/2kztyYHzCir43t9ACawfVPCDwJBgYiZvHEhUUKkJQ0oRKiAraukyj1SzBvBBa2Mc0ihMQqXl8RmQ27FfySpDwVcE0mXdoue1FJzoNK7OAjKIa4ktKHN5cpB6l5ZjARBwEEW1JhaAxJNTo85yBxClHKz6FeAA+7K0bLWIUsRk4gHgQVjz0CboSW/skNgCGAEmW5MltcZhHRBtTlXAhMKqzRlbgEfU8I2bSwBo10oYwpranusA/TsNTmMB2R3mUnENUCYLiBiQB8UxIJ9K1PZ3BRZ/lWjui3+lN3okpcYoINAFF7blcEui2dbDugNKrmHogh2Mkko0FRsl1MlfRpVlqgRhfTMg+VZjZ4BATcdZX4sSlACgltH+kepIBs4hDK0/4zSjs4fhkrauiHyijWbvdIL60UbBlgfY+b93wu+d8P/cCSv/TfciLWDr8dcc0sc/Qsn7uQH8x9G0drHGYTz71h3MsIyH63oZ0B/ZxvSuKcFcomxcD1xyyOICAt2J1PHbpF6/BTAlcOMSRQHmbmrjmkYBridSvQjCmbGMV03opAfp18ssoB0FmPEiCk4u2sv3yTSWRvd1wJyc52oQoXx4uNnRsguvOJPNF9preFD3OVrBFaxQlUsebl1RkeUhJSkAjZ48DTuUVkXXAWInnjr4oSroybMFoDTDzs6qtdFFzb8dhhfD63qzY+fzugHwWWNUBnuw/jCyVY/Rqdm6fBnXV+3d2pkB3jnbV1RSwPXfdte/ba8fLi8W7g+Pj+f3Esv/7YsI/en8EkM+/gY=);lineShape=1;strokeColor=default;" vertex="1" parent="1">
          <mxGeometry x="1467.3171766439928" y="303.63602829957085" width="19.892141663492314" height="112.15171582905997" as="geometry" />
        </mxCell>
        <mxCell id="gzwCgdqreQGhpecsWad8-87" value="&lt;h1&gt;&lt;font face=&quot;embla&quot; data-font-src=&quot;https://fonts.google.com/share?selection.family=Emblema+One|JetBrains+Mono:ital,wght@0,100..800;1,100..800&quot; style=&quot;color: light-dark(rgb(0, 0, 0), rgb(0, 0, 0));&quot;&gt;&lt;i style=&quot;font-weight: normal;&quot;&gt;MICROSERVICES&lt;/i&gt;&lt;/font&gt;&lt;/h1&gt;&lt;div&gt;&lt;font style=&quot;color: light-dark(rgb(0, 0, 0), rgb(0, 0, 0));&quot;&gt;&lt;i style=&quot;font-weight: normal;&quot;&gt;&lt;br&gt;&lt;/i&gt;&lt;/font&gt;&lt;/div&gt;" style="text;strokeColor=none;align=center;fillColor=none;html=1;verticalAlign=middle;whiteSpace=wrap;rounded=0;" vertex="1" parent="1">
          <mxGeometry x="2145" y="1130" width="303" height="70" as="geometry" />
        </mxCell>
        <mxCell id="gzwCgdqreQGhpecsWad8-88" value="" style="shape=stencil(fZbdcgIhDIWfZm8zQAg/17Z9j85U606tdqz9e/tmZ0c0uJ47xP0I5JwEBl59bp8/1kNwn6fj4W39M76ctgM/DCGM++36OJ50NPDjwKvN4bh+PR6+9i/z74/n6ctp9H74nlb4nbmSKZeJCu5vngmZ6jzzNAO7cX8FVKEsBuBKrgKg9oAE8gkCbLeUhEoEQKSUDZDLeWYRKIl8MEDRmHwfyBrBG6Amyu4+kDxxMoB3jhwgYu7TVAsVkFcWCs4CTBEoF4RctKeOxHIf8IXYpikHikAIf+MNUW94AGSSaoAoFIE3AlOyeWU+p2E5S9yfQZcQILVuQOwZdJNoS9Ls3wA5u2XZTIHECqeJ9kDpSaauRiNVcAY1QhdBzeLBli5WazpkSsBLV25uRaqWRyFawTQzRRIQYirJzq5atkBqLfouwqUxLBepthWb10vrWZY6UOAeyKCCtDV625mm9gmUC4Wc3VLJMMIE1BsA2FW9JraVlQB7n3c9oMKhCLEvIM1zBPZ25/umNQ1tVEC2G+fFCC8g398O2hNQuQlVu752DBfA+q0ptnqO5JFmeuIuo9DY7KjY71UxdJV4EntifPWorW++R/dC4t7V3DlIB5cHx2bc7eb3yvX//QNFp+bHDT/+Aw==);lineShape=1;strokeColor=default;" vertex="1" parent="1">
          <mxGeometry x="1640.964400936084" y="582.9725693983546" width="5.191710857905794" height="5.183595795952998" as="geometry" />
        </mxCell>
        <mxCell id="gzwCgdqreQGhpecsWad8-89" value="" style="shape=stencil(fZbdcgIhDIWfZm8zQAg/17Z9j85U606tdqz9e/tmZ0c0uJ47xP0I5JwEBl59bp8/1kNwn6fj4W39M76ctgM/DCGM++36OJ50NPDjwKvN4bh+PR6+9i/z74/n6ctp9H74nlb4nbmSKZeJCu5vngmZ6jzzNAO7cX8FVKEsBuBKrgKg9oAE8gkCbLeUhEoEQKSUDZDLeWYRKIl8MEDRmHwfyBrBG6Amyu4+kDxxMoB3jhwgYu7TVAsVkFcWCs4CTBEoF4RctKeOxHIf8IXYpikHikAIf+MNUW94AGSSaoAoFIE3AlOyeWU+p2E5S9yfQZcQILVuQOwZdJNoS9Ls3wA5u2XZTIHECqeJ9kDpSaauRiNVcAY1QhdBzeLBli5WazpkSsBLV25uRaqWRyFawTQzRRIQYirJzq5atkBqLfouwqUxLBepthWb10vrWZY6UOAeyKCCtDV625mm9gmUC4Wc3VLJMMIE1BsA2FW9JraVlQB7n3c9oMKhCLEvIM1zBPZ25/umNQ1tVEC2G+fFCC8g398O2hNQuQlVu752DBfA+q0ptnqO5JFmeuIuo9DY7KjY71UxdJV4EntifPWorW++R/dC4t7V3DlIB5cHx2bc7eb3yvX//QNFp+bHDT/+Aw==);lineShape=1;strokeColor=default;" vertex="1" parent="1">
          <mxGeometry x="1640.964400936084" y="582.9725693983546" width="5.191710857905794" height="5.183595795952998" as="geometry" />
        </mxCell>
        <mxCell id="gzwCgdqreQGhpecsWad8-90" value="" style="shape=stencil(fZbdcgIhDIWfZm8zQAg/17Z9j85U606tdqz9e/tmZ0c0uJ47xP0I5JwEBl59bp8/1kNwn6fj4W39M76ctgM/DCGM++36OJ50NPDjwKvN4bh+PR6+9i/z74/n6ctp9H74nlb4nbmSKZeJCu5vngmZ6jzzNAO7cX8FVKEsBuBKrgKg9oAE8gkCbLeUhEoEQKSUDZDLeWYRKIl8MEDRmHwfyBrBG6Amyu4+kDxxMoB3jhwgYu7TVAsVkFcWCs4CTBEoF4RctKeOxHIf8IXYpikHikAIf+MNUW94AGSSaoAoFIE3AlOyeWU+p2E5S9yfQZcQILVuQOwZdJNoS9Ls3wA5u2XZTIHECqeJ9kDpSaauRiNVcAY1QhdBzeLBli5WazpkSsBLV25uRaqWRyFawTQzRRIQYirJzq5atkBqLfouwqUxLBepthWb10vrWZY6UOAeyKCCtDV625mm9gmUC4Wc3VLJMMIE1BsA2FW9JraVlQB7n3c9oMKhCLEvIM1zBPZ25/umNQ1tVEC2G+fFCC8g398O2hNQuQlVu752DBfA+q0ptnqO5JFmeuIuo9DY7KjY71UxdJV4EntifPWorW++R/dC4t7V3DlIB5cHx2bc7eb3yvX//QNFp+bHDT/+Aw==);lineShape=1;strokeColor=default;" vertex="1" parent="1">
          <mxGeometry x="1640.964400936084" y="582.9725693983546" width="5.191710857905794" height="5.183595795952998" as="geometry" />
        </mxCell>
        <mxCell id="gzwCgdqreQGhpecsWad8-91" value="" style="shape=stencil(fZbdcgIhDIWfZm8zQAg/17Z9j85U606tdqz9e/tmZ0c0uJ47xP0I5JwEBl59bp8/1kNwn6fj4W39M76ctgM/DCGM++36OJ50NPDjwKvN4bh+PR6+9i/z74/n6ctp9H74nlb4nbmSKZeJCu5vngmZ6jzzNAO7cX8FVKEsBuBKrgKg9oAE8gkCbLeUhEoEQKSUDZDLeWYRKIl8MEDRmHwfyBrBG6Amyu4+kDxxMoB3jhwgYu7TVAsVkFcWCs4CTBEoF4RctKeOxHIf8IXYpikHikAIf+MNUW94AGSSaoAoFIE3AlOyeWU+p2E5S9yfQZcQILVuQOwZdJNoS9Ls3wA5u2XZTIHECqeJ9kDpSaauRiNVcAY1QhdBzeLBli5WazpkSsBLV25uRaqWRyFawTQzRRIQYirJzq5atkBqLfouwqUxLBepthWb10vrWZY6UOAeyKCCtDV625mm9gmUC4Wc3VLJMMIE1BsA2FW9JraVlQB7n3c9oMKhCLEvIM1zBPZ25/umNQ1tVEC2G+fFCC8g398O2hNQuQlVu752DBfA+q0ptnqO5JFmeuIuo9DY7KjY71UxdJV4EntifPWorW++R/dC4t7V3DlIB5cHx2bc7eb3yvX//QNFp+bHDT/+Aw==);lineShape=1;strokeColor=default;" vertex="1" parent="1">
          <mxGeometry x="1640.964400936084" y="582.9725693983546" width="5.191710857905794" height="5.183595795952998" as="geometry" />
        </mxCell>
        <mxCell id="gzwCgdqreQGhpecsWad8-92" value="" style="shape=stencil(fZbdcgIhDIWfZm8zQAg/17Z9j85U606tdqz9e/tmZ0c0uJ47xP0I5JwEBl59bp8/1kNwn6fj4W39M76ctgM/DCGM++36OJ50NPDjwKvN4bh+PR6+9i/z74/n6ctp9H74nlb4nbmSKZeJCu5vngmZ6jzzNAO7cX8FVKEsBuBKrgKg9oAE8gkCbLeUhEoEQKSUDZDLeWYRKIl8MEDRmHwfyBrBG6Amyu4+kDxxMoB3jhwgYu7TVAsVkFcWCs4CTBEoF4RctKeOxHIf8IXYpikHikAIf+MNUW94AGSSaoAoFIE3AlOyeWU+p2E5S9yfQZcQILVuQOwZdJNoS9Ls3wA5u2XZTIHECqeJ9kDpSaauRiNVcAY1QhdBzeLBli5WazpkSsBLV25uRaqWRyFawTQzRRIQYirJzq5atkBqLfouwqUxLBepthWb10vrWZY6UOAeyKCCtDV625mm9gmUC4Wc3VLJMMIE1BsA2FW9JraVlQB7n3c9oMKhCLEvIM1zBPZ25/umNQ1tVEC2G+fFCC8g398O2hNQuQlVu752DBfA+q0ptnqO5JFmeuIuo9DY7KjY71UxdJV4EntifPWorW++R/dC4t7V3DlIB5cHx2bc7eb3yvX//QNFp+bHDT/+Aw==);lineShape=1;strokeColor=default;" vertex="1" parent="1">
          <mxGeometry x="1605.4088453805289" y="708.52812495391" width="5.191710857905794" height="5.183595795952998" as="geometry" />
        </mxCell>
        <mxCell id="gzwCgdqreQGhpecsWad8-93" value="" style="shape=stencil(fZbdcgIhDIWfZm8zQAg/17Z9j85U606tdqz9e/tmZ0c0uJ47xP0I5JwEBl59bp8/1kNwn6fj4W39M76ctgM/DCGM++36OJ50NPDjwKvN4bh+PR6+9i/z74/n6ctp9H74nlb4nbmSKZeJCu5vngmZ6jzzNAO7cX8FVKEsBuBKrgKg9oAE8gkCbLeUhEoEQKSUDZDLeWYRKIl8MEDRmHwfyBrBG6Amyu4+kDxxMoB3jhwgYu7TVAsVkFcWCs4CTBEoF4RctKeOxHIf8IXYpikHikAIf+MNUW94AGSSaoAoFIE3AlOyeWU+p2E5S9yfQZcQILVuQOwZdJNoS9Ls3wA5u2XZTIHECqeJ9kDpSaauRiNVcAY1QhdBzeLBli5WazpkSsBLV25uRaqWRyFawTQzRRIQYirJzq5atkBqLfouwqUxLBepthWb10vrWZY6UOAeyKCCtDV625mm9gmUC4Wc3VLJMMIE1BsA2FW9JraVlQB7n3c9oMKhCLEvIM1zBPZ25/umNQ1tVEC2G+fFCC8g398O2hNQuQlVu752DBfA+q0ptnqO5JFmeuIuo9DY7KjY71UxdJV4EntifPWorW++R/dC4t7V3DlIB5cHx2bc7eb3yvX//QNFp+bHDT/+Aw==);lineShape=1;strokeColor=default;" vertex="1" parent="1">
          <mxGeometry x="1605.4088453805289" y="708.52812495391" width="5.191710857905794" height="5.183595795952998" as="geometry" />
        </mxCell>
        <mxCell id="gzwCgdqreQGhpecsWad8-94" value="" style="shape=stencil(fZbdcgIhDIWfZm8zQAg/17Z9j85U606tdqz9e/tmZ0c0uJ47xP0I5JwEBl59bp8/1kNwn6fj4W39M76ctgM/DCGM++36OJ50NPDjwKvN4bh+PR6+9i/z74/n6ctp9H74nlb4nbmSKZeJCu5vngmZ6jzzNAO7cX8FVKEsBuBKrgKg9oAE8gkCbLeUhEoEQKSUDZDLeWYRKIl8MEDRmHwfyBrBG6Amyu4+kDxxMoB3jhwgYu7TVAsVkFcWCs4CTBEoF4RctKeOxHIf8IXYpikHikAIf+MNUW94AGSSaoAoFIE3AlOyeWU+p2E5S9yfQZcQILVuQOwZdJNoS9Ls3wA5u2XZTIHECqeJ9kDpSaauRiNVcAY1QhdBzeLBli5WazpkSsBLV25uRaqWRyFawTQzRRIQYirJzq5atkBqLfouwqUxLBepthWb10vrWZY6UOAeyKCCtDV625mm9gmUC4Wc3VLJMMIE1BsA2FW9JraVlQB7n3c9oMKhCLEvIM1zBPZ25/umNQ1tVEC2G+fFCC8g398O2hNQuQlVu752DBfA+q0ptnqO5JFmeuIuo9DY7KjY71UxdJV4EntifPWorW++R/dC4t7V3DlIB5cHx2bc7eb3yvX//QNFp+bHDT/+Aw==);lineShape=1;strokeColor=default;" vertex="1" parent="1">
          <mxGeometry x="1605.4088453805289" y="708.52812495391" width="5.191710857905794" height="5.183595795952998" as="geometry" />
        </mxCell>
        <mxCell id="gzwCgdqreQGhpecsWad8-95" value="" style="shape=stencil(fZbdcgIhDIWfZm8zQAg/17Z9j85U606tdqz9e/tmZ0c0uJ47xP0I5JwEBl59bp8/1kNwn6fj4W39M76ctgM/DCGM++36OJ50NPDjwKvN4bh+PR6+9i/z74/n6ctp9H74nlb4nbmSKZeJCu5vngmZ6jzzNAO7cX8FVKEsBuBKrgKg9oAE8gkCbLeUhEoEQKSUDZDLeWYRKIl8MEDRmHwfyBrBG6Amyu4+kDxxMoB3jhwgYu7TVAsVkFcWCs4CTBEoF4RctKeOxHIf8IXYpikHikAIf+MNUW94AGSSaoAoFIE3AlOyeWU+p2E5S9yfQZcQILVuQOwZdJNoS9Ls3wA5u2XZTIHECqeJ9kDpSaauRiNVcAY1QhdBzeLBli5WazpkSsBLV25uRaqWRyFawTQzRRIQYirJzq5atkBqLfouwqUxLBepthWb10vrWZY6UOAeyKCCtDV625mm9gmUC4Wc3VLJMMIE1BsA2FW9JraVlQB7n3c9oMKhCLEvIM1zBPZ25/umNQ1tVEC2G+fFCC8g398O2hNQuQlVu752DBfA+q0ptnqO5JFmeuIuo9DY7KjY71UxdJV4EntifPWorW++R/dC4t7V3DlIB5cHx2bc7eb3yvX//QNFp+bHDT/+Aw==);lineShape=1;strokeColor=default;" vertex="1" parent="1">
          <mxGeometry x="1542.0755120471954" y="697.417013842799" width="5.191710857905794" height="5.183595795952998" as="geometry" />
        </mxCell>
        <mxCell id="gzwCgdqreQGhpecsWad8-96" value="" style="shape=stencil(fZbdcgIhDIWfZm8zQAg/17Z9j85U606tdqz9e/tmZ0c0uJ47xP0I5JwEBl59bp8/1kNwn6fj4W39M76ctgM/DCGM++36OJ50NPDjwKvN4bh+PR6+9i/z74/n6ctp9H74nlb4nbmSKZeJCu5vngmZ6jzzNAO7cX8FVKEsBuBKrgKg9oAE8gkCbLeUhEoEQKSUDZDLeWYRKIl8MEDRmHwfyBrBG6Amyu4+kDxxMoB3jhwgYu7TVAsVkFcWCs4CTBEoF4RctKeOxHIf8IXYpikHikAIf+MNUW94AGSSaoAoFIE3AlOyeWU+p2E5S9yfQZcQILVuQOwZdJNoS9Ls3wA5u2XZTIHECqeJ9kDpSaauRiNVcAY1QhdBzeLBli5WazpkSsBLV25uRaqWRyFawTQzRRIQYirJzq5atkBqLfouwqUxLBepthWb10vrWZY6UOAeyKCCtDV625mm9gmUC4Wc3VLJMMIE1BsA2FW9JraVlQB7n3c9oMKhCLEvIM1zBPZ25/umNQ1tVEC2G+fFCC8g398O2hNQuQlVu752DBfA+q0ptnqO5JFmeuIuo9DY7KjY71UxdJV4EntifPWorW++R/dC4t7V3DlIB5cHx2bc7eb3yvX//QNFp+bHDT/+Aw==);lineShape=1;strokeColor=default;" vertex="1" parent="1">
          <mxGeometry x="1542.0755120471954" y="697.417013842799" width="5.191710857905794" height="5.183595795952998" as="geometry" />
        </mxCell>
        <mxCell id="gzwCgdqreQGhpecsWad8-97" value="" style="shape=stencil(fZbdcgIhDIWfZm8zQAg/17Z9j85U606tdqz9e/tmZ0c0uJ47xP0I5JwEBl59bp8/1kNwn6fj4W39M76ctgM/DCGM++36OJ50NPDjwKvN4bh+PR6+9i/z74/n6ctp9H74nlb4nbmSKZeJCu5vngmZ6jzzNAO7cX8FVKEsBuBKrgKg9oAE8gkCbLeUhEoEQKSUDZDLeWYRKIl8MEDRmHwfyBrBG6Amyu4+kDxxMoB3jhwgYu7TVAsVkFcWCs4CTBEoF4RctKeOxHIf8IXYpikHikAIf+MNUW94AGSSaoAoFIE3AlOyeWU+p2E5S9yfQZcQILVuQOwZdJNoS9Ls3wA5u2XZTIHECqeJ9kDpSaauRiNVcAY1QhdBzeLBli5WazpkSsBLV25uRaqWRyFawTQzRRIQYirJzq5atkBqLfouwqUxLBepthWb10vrWZY6UOAeyKCCtDV625mm9gmUC4Wc3VLJMMIE1BsA2FW9JraVlQB7n3c9oMKhCLEvIM1zBPZ25/umNQ1tVEC2G+fFCC8g398O2hNQuQlVu752DBfA+q0ptnqO5JFmeuIuo9DY7KjY71UxdJV4EntifPWorW++R/dC4t7V3DlIB5cHx2bc7eb3yvX//QNFp+bHDT/+Aw==);lineShape=1;strokeColor=default;" vertex="1" parent="1">
          <mxGeometry x="1542.0755120471954" y="697.417013842799" width="5.191710857905794" height="5.183595795952998" as="geometry" />
        </mxCell>
        <mxCell id="gzwCgdqreQGhpecsWad8-98" value="" style="shape=stencil(fZbdcgIhDIWfZm8zQAg/17Z9j85U606tdqz9e/tmZ0c0uJ47xP0I5JwEBl59bp8/1kNwn6fj4W39M76ctgM/DCGM++36OJ50NPDjwKvN4bh+PR6+9i/z74/n6ctp9H74nlb4nbmSKZeJCu5vngmZ6jzzNAO7cX8FVKEsBuBKrgKg9oAE8gkCbLeUhEoEQKSUDZDLeWYRKIl8MEDRmHwfyBrBG6Amyu4+kDxxMoB3jhwgYu7TVAsVkFcWCs4CTBEoF4RctKeOxHIf8IXYpikHikAIf+MNUW94AGSSaoAoFIE3AlOyeWU+p2E5S9yfQZcQILVuQOwZdJNoS9Ls3wA5u2XZTIHECqeJ9kDpSaauRiNVcAY1QhdBzeLBli5WazpkSsBLV25uRaqWRyFawTQzRRIQYirJzq5atkBqLfouwqUxLBepthWb10vrWZY6UOAeyKCCtDV625mm9gmUC4Wc3VLJMMIE1BsA2FW9JraVlQB7n3c9oMKhCLEvIM1zBPZ25/umNQ1tVEC2G+fFCC8g398O2hNQuQlVu752DBfA+q0ptnqO5JFmeuIuo9DY7KjY71UxdJV4EntifPWorW++R/dC4t7V3DlIB5cHx2bc7eb3yvX//QNFp+bHDT/+Aw==);lineShape=1;strokeColor=default;" vertex="1" parent="1">
          <mxGeometry x="1542.0755120471954" y="697.417013842799" width="5.191710857905794" height="5.183595795952998" as="geometry" />
        </mxCell>
        <mxCell id="gzwCgdqreQGhpecsWad8-99" value="" style="shape=stencil(fZbdcgIhDIWfZm8zQAg/17Z9j85U606tdqz9e/tmZ0c0uJ47xP0I5JwEBl59bp8/1kNwn6fj4W39M76ctgM/DCGM++36OJ50NPDjwKvN4bh+PR6+9i/z74/n6ctp9H74nlb4nbmSKZeJCu5vngmZ6jzzNAO7cX8FVKEsBuBKrgKg9oAE8gkCbLeUhEoEQKSUDZDLeWYRKIl8MEDRmHwfyBrBG6Amyu4+kDxxMoB3jhwgYu7TVAsVkFcWCs4CTBEoF4RctKeOxHIf8IXYpikHikAIf+MNUW94AGSSaoAoFIE3AlOyeWU+p2E5S9yfQZcQILVuQOwZdJNoS9Ls3wA5u2XZTIHECqeJ9kDpSaauRiNVcAY1QhdBzeLBli5WazpkSsBLV25uRaqWRyFawTQzRRIQYirJzq5atkBqLfouwqUxLBepthWb10vrWZY6UOAeyKCCtDV625mm9gmUC4Wc3VLJMMIE1BsA2FW9JraVlQB7n3c9oMKhCLEvIM1zBPZ25/umNQ1tVEC2G+fFCC8g398O2hNQuQlVu752DBfA+q0ptnqO5JFmeuIuo9DY7KjY71UxdJV4EntifPWorW++R/dC4t7V3DlIB5cHx2bc7eb3yvX//QNFp+bHDT/+Aw==);lineShape=1;strokeColor=default;" vertex="1" parent="1">
          <mxGeometry x="1622.0755120471954" y="772.9725693983546" width="5.191710857905794" height="5.183595795952998" as="geometry" />
        </mxCell>
        <mxCell id="gzwCgdqreQGhpecsWad8-101" value="" style="shape=stencil(fZbdcgIhDIWfZm8zQAg/17Z9j85U606tdqz9e/tmZ0c0uJ47xP0I5JwEBl59bp8/1kNwn6fj4W39M76ctgM/DCGM++36OJ50NPDjwKvN4bh+PR6+9i/z74/n6ctp9H74nlb4nbmSKZeJCu5vngmZ6jzzNAO7cX8FVKEsBuBKrgKg9oAE8gkCbLeUhEoEQKSUDZDLeWYRKIl8MEDRmHwfyBrBG6Amyu4+kDxxMoB3jhwgYu7TVAsVkFcWCs4CTBEoF4RctKeOxHIf8IXYpikHikAIf+MNUW94AGSSaoAoFIE3AlOyeWU+p2E5S9yfQZcQILVuQOwZdJNoS9Ls3wA5u2XZTIHECqeJ9kDpSaauRiNVcAY1QhdBzeLBli5WazpkSsBLV25uRaqWRyFawTQzRRIQYirJzq5atkBqLfouwqUxLBepthWb10vrWZY6UOAeyKCCtDV625mm9gmUC4Wc3VLJMMIE1BsA2FW9JraVlQB7n3c9oMKhCLEvIM1zBPZ25/umNQ1tVEC2G+fFCC8g398O2hNQuQlVu752DBfA+q0ptnqO5JFmeuIuo9DY7KjY71UxdJV4EntifPWorW++R/dC4t7V3DlIB5cHx2bc7eb3yvX//QNFp+bHDT/+Aw==);lineShape=1;strokeColor=default;" vertex="1" parent="1">
          <mxGeometry x="1597.631067602751" y="690.7503471761324" width="5.191710857905794" height="5.183595795952998" as="geometry" />
        </mxCell>
        <mxCell id="gzwCgdqreQGhpecsWad8-102" value="" style="shape=stencil(fZbdcgIhDIWfZm8zQAg/17Z9j85U606tdqz9e/tmZ0c0uJ47xP0I5JwEBl59bp8/1kNwn6fj4W39M76ctgM/DCGM++36OJ50NPDjwKvN4bh+PR6+9i/z74/n6ctp9H74nlb4nbmSKZeJCu5vngmZ6jzzNAO7cX8FVKEsBuBKrgKg9oAE8gkCbLeUhEoEQKSUDZDLeWYRKIl8MEDRmHwfyBrBG6Amyu4+kDxxMoB3jhwgYu7TVAsVkFcWCs4CTBEoF4RctKeOxHIf8IXYpikHikAIf+MNUW94AGSSaoAoFIE3AlOyeWU+p2E5S9yfQZcQILVuQOwZdJNoS9Ls3wA5u2XZTIHECqeJ9kDpSaauRiNVcAY1QhdBzeLBli5WazpkSsBLV25uRaqWRyFawTQzRRIQYirJzq5atkBqLfouwqUxLBepthWb10vrWZY6UOAeyKCCtDV625mm9gmUC4Wc3VLJMMIE1BsA2FW9JraVlQB7n3c9oMKhCLEvIM1zBPZ25/umNQ1tVEC2G+fFCC8g398O2hNQuQlVu752DBfA+q0ptnqO5JFmeuIuo9DY7KjY71UxdJV4EntifPWorW++R/dC4t7V3DlIB5cHx2bc7eb3yvX//QNFp+bHDT/+Aw==);lineShape=1;strokeColor=default;" vertex="1" parent="1">
          <mxGeometry x="1597.631067602751" y="690.7503471761324" width="5.191710857905794" height="5.183595795952998" as="geometry" />
        </mxCell>
        <mxCell id="gzwCgdqreQGhpecsWad8-103" value="" style="shape=stencil(fZbdcgIhDIWfZm8zQAg/17Z9j85U606tdqz9e/tmZ0c0uJ47xP0I5JwEBl59bp8/1kNwn6fj4W39M76ctgM/DCGM++36OJ50NPDjwKvN4bh+PR6+9i/z74/n6ctp9H74nlb4nbmSKZeJCu5vngmZ6jzzNAO7cX8FVKEsBuBKrgKg9oAE8gkCbLeUhEoEQKSUDZDLeWYRKIl8MEDRmHwfyBrBG6Amyu4+kDxxMoB3jhwgYu7TVAsVkFcWCs4CTBEoF4RctKeOxHIf8IXYpikHikAIf+MNUW94AGSSaoAoFIE3AlOyeWU+p2E5S9yfQZcQILVuQOwZdJNoS9Ls3wA5u2XZTIHECqeJ9kDpSaauRiNVcAY1QhdBzeLBli5WazpkSsBLV25uRaqWRyFawTQzRRIQYirJzq5atkBqLfouwqUxLBepthWb10vrWZY6UOAeyKCCtDV625mm9gmUC4Wc3VLJMMIE1BsA2FW9JraVlQB7n3c9oMKhCLEvIM1zBPZ25/umNQ1tVEC2G+fFCC8g398O2hNQuQlVu752DBfA+q0ptnqO5JFmeuIuo9DY7KjY71UxdJV4EntifPWorW++R/dC4t7V3DlIB5cHx2bc7eb3yvX//QNFp+bHDT/+Aw==);lineShape=1;strokeColor=default;" vertex="1" parent="1">
          <mxGeometry x="1597.631067602751" y="690.7503471761324" width="5.191710857905794" height="5.183595795952998" as="geometry" />
        </mxCell>
        <mxCell id="gzwCgdqreQGhpecsWad8-104" value="" style="shape=stencil(fZbdcgIhDIWfZm8zQAg/17Z9j85U606tdqz9e/tmZ0c0uJ47xP0I5JwEBl59bp8/1kNwn6fj4W39M76ctgM/DCGM++36OJ50NPDjwKvN4bh+PR6+9i/z74/n6ctp9H74nlb4nbmSKZeJCu5vngmZ6jzzNAO7cX8FVKEsBuBKrgKg9oAE8gkCbLeUhEoEQKSUDZDLeWYRKIl8MEDRmHwfyBrBG6Amyu4+kDxxMoB3jhwgYu7TVAsVkFcWCs4CTBEoF4RctKeOxHIf8IXYpikHikAIf+MNUW94AGSSaoAoFIE3AlOyeWU+p2E5S9yfQZcQILVuQOwZdJNoS9Ls3wA5u2XZTIHECqeJ9kDpSaauRiNVcAY1QhdBzeLBli5WazpkSsBLV25uRaqWRyFawTQzRRIQYirJzq5atkBqLfouwqUxLBepthWb10vrWZY6UOAeyKCCtDV625mm9gmUC4Wc3VLJMMIE1BsA2FW9JraVlQB7n3c9oMKhCLEvIM1zBPZ25/umNQ1tVEC2G+fFCC8g398O2hNQuQlVu752DBfA+q0ptnqO5JFmeuIuo9DY7KjY71UxdJV4EntifPWorW++R/dC4t7V3DlIB5cHx2bc7eb3yvX//QNFp+bHDT/+Aw==);lineShape=1;strokeColor=default;" vertex="1" parent="1">
          <mxGeometry x="1554.2977342694176" y="672.9725693983546" width="5.191710857905794" height="5.183595795952998" as="geometry" />
        </mxCell>
        <mxCell id="gzwCgdqreQGhpecsWad8-105" value="" style="shape=stencil(fZbdcgIhDIWfZm8zQAg/17Z9j85U606tdqz9e/tmZ0c0uJ47xP0I5JwEBl59bp8/1kNwn6fj4W39M76ctgM/DCGM++36OJ50NPDjwKvN4bh+PR6+9i/z74/n6ctp9H74nlb4nbmSKZeJCu5vngmZ6jzzNAO7cX8FVKEsBuBKrgKg9oAE8gkCbLeUhEoEQKSUDZDLeWYRKIl8MEDRmHwfyBrBG6Amyu4+kDxxMoB3jhwgYu7TVAsVkFcWCs4CTBEoF4RctKeOxHIf8IXYpikHikAIf+MNUW94AGSSaoAoFIE3AlOyeWU+p2E5S9yfQZcQILVuQOwZdJNoS9Ls3wA5u2XZTIHECqeJ9kDpSaauRiNVcAY1QhdBzeLBli5WazpkSsBLV25uRaqWRyFawTQzRRIQYirJzq5atkBqLfouwqUxLBepthWb10vrWZY6UOAeyKCCtDV625mm9gmUC4Wc3VLJMMIE1BsA2FW9JraVlQB7n3c9oMKhCLEvIM1zBPZ25/umNQ1tVEC2G+fFCC8g398O2hNQuQlVu752DBfA+q0ptnqO5JFmeuIuo9DY7KjY71UxdJV4EntifPWorW++R/dC4t7V3DlIB5cHx2bc7eb3yvX//QNFp+bHDT/+Aw==);lineShape=1;strokeColor=default;" vertex="1" parent="1">
          <mxGeometry x="1554.2977342694176" y="672.9725693983546" width="5.191710857905794" height="5.183595795952998" as="geometry" />
        </mxCell>
        <mxCell id="gzwCgdqreQGhpecsWad8-106" value="" style="shape=stencil(fZbdcgIhDIWfZm8zQAg/17Z9j85U606tdqz9e/tmZ0c0uJ47xP0I5JwEBl59bp8/1kNwn6fj4W39M76ctgM/DCGM++36OJ50NPDjwKvN4bh+PR6+9i/z74/n6ctp9H74nlb4nbmSKZeJCu5vngmZ6jzzNAO7cX8FVKEsBuBKrgKg9oAE8gkCbLeUhEoEQKSUDZDLeWYRKIl8MEDRmHwfyBrBG6Amyu4+kDxxMoB3jhwgYu7TVAsVkFcWCs4CTBEoF4RctKeOxHIf8IXYpikHikAIf+MNUW94AGSSaoAoFIE3AlOyeWU+p2E5S9yfQZcQILVuQOwZdJNoS9Ls3wA5u2XZTIHECqeJ9kDpSaauRiNVcAY1QhdBzeLBli5WazpkSsBLV25uRaqWRyFawTQzRRIQYirJzq5atkBqLfouwqUxLBepthWb10vrWZY6UOAeyKCCtDV625mm9gmUC4Wc3VLJMMIE1BsA2FW9JraVlQB7n3c9oMKhCLEvIM1zBPZ25/umNQ1tVEC2G+fFCC8g398O2hNQuQlVu752DBfA+q0ptnqO5JFmeuIuo9DY7KjY71UxdJV4EntifPWorW++R/dC4t7V3DlIB5cHx2bc7eb3yvX//QNFp+bHDT/+Aw==);lineShape=1;strokeColor=default;" vertex="1" parent="1">
          <mxGeometry x="1406.5199564916397" y="637.417013842799" width="5.191710857905794" height="5.183595795952998" as="geometry" />
        </mxCell>
        <mxCell id="gzwCgdqreQGhpecsWad8-107" value="" style="shape=stencil(fZbdcgIhDIWfZm8zQAg/17Z9j85U606tdqz9e/tmZ0c0uJ47xP0I5JwEBl59bp8/1kNwn6fj4W39M76ctgM/DCGM++36OJ50NPDjwKvN4bh+PR6+9i/z74/n6ctp9H74nlb4nbmSKZeJCu5vngmZ6jzzNAO7cX8FVKEsBuBKrgKg9oAE8gkCbLeUhEoEQKSUDZDLeWYRKIl8MEDRmHwfyBrBG6Amyu4+kDxxMoB3jhwgYu7TVAsVkFcWCs4CTBEoF4RctKeOxHIf8IXYpikHikAIf+MNUW94AGSSaoAoFIE3AlOyeWU+p2E5S9yfQZcQILVuQOwZdJNoS9Ls3wA5u2XZTIHECqeJ9kDpSaauRiNVcAY1QhdBzeLBli5WazpkSsBLV25uRaqWRyFawTQzRRIQYirJzq5atkBqLfouwqUxLBepthWb10vrWZY6UOAeyKCCtDV625mm9gmUC4Wc3VLJMMIE1BsA2FW9JraVlQB7n3c9oMKhCLEvIM1zBPZ25/umNQ1tVEC2G+fFCC8g398O2hNQuQlVu752DBfA+q0ptnqO5JFmeuIuo9DY7KjY71UxdJV4EntifPWorW++R/dC4t7V3DlIB5cHx2bc7eb3yvX//QNFp+bHDT/+Aw==);lineShape=1;strokeColor=default;" vertex="1" parent="1">
          <mxGeometry x="1710.964400936084" y="507.41701384279895" width="5.191710857905794" height="5.183595795952998" as="geometry" />
        </mxCell>
        <mxCell id="gzwCgdqreQGhpecsWad8-110" value="" style="rounded=1;whiteSpace=wrap;html=1;fillStyle=dashed;dashed=1;strokeWidth=1;strokeColor=light-dark(#FF2828,#FF052E);sketch=1;curveFitting=1;jiggle=2;" vertex="1" parent="1">
          <mxGeometry x="894" y="409" width="373" height="60" as="geometry" />
        </mxCell>
        <mxCell id="gzwCgdqreQGhpecsWad8-112" value="&lt;h1&gt;&lt;font style=&quot;color: light-dark(rgb(0, 0, 0), rgb(0, 0, 0));&quot;&gt;MONOLITH&lt;/font&gt;&lt;/h1&gt;" style="text;strokeColor=none;align=center;fillColor=none;html=1;verticalAlign=middle;whiteSpace=wrap;rounded=0;" vertex="1" parent="1">
          <mxGeometry x="1050.5" y="427.21" width="60" height="30" as="geometry" />
        </mxCell>
        <mxCell id="gzwCgdqreQGhpecsWad8-80" value="" style="group" vertex="1" connectable="0" parent="1">
          <mxGeometry x="753" y="900" width="674" height="327" as="geometry" />
        </mxCell>
        <mxCell id="gzwCgdqreQGhpecsWad8-76" style="edgeStyle=orthogonalEdgeStyle;rounded=0;orthogonalLoop=1;jettySize=auto;html=1;entryX=0.855;entryY=0;entryDx=0;entryDy=4.35;curved=1;flowAnimation=1;strokeColor=light-dark(#A20025,#FF2332);entryPerimeter=0;fillColor=#a20025;" edge="1" parent="gzwCgdqreQGhpecsWad8-80">
          <mxGeometry relative="1" as="geometry">
            <mxPoint x="451" y="161.49" as="sourcePoint" />
            <mxPoint x="455" y="170.49" as="targetPoint" />
            <Array as="points">
              <mxPoint x="451" y="143.49" />
              <mxPoint x="520" y="143.49" />
              <mxPoint x="520" y="186.49" />
              <mxPoint x="455" y="186.49" />
            </Array>
          </mxGeometry>
        </mxCell>
        <mxCell id="gzwCgdqreQGhpecsWad8-41" value="US" style="rounded=1;whiteSpace=wrap;html=1;fillColor=light-dark(#FFFFFF,#E2F7FF);gradientColor=none;fillStyle=auto;" vertex="1" parent="gzwCgdqreQGhpecsWad8-80">
          <mxGeometry width="90" height="50" as="geometry" />
        </mxCell>
        <mxCell id="gzwCgdqreQGhpecsWad8-26" value="" style="rounded=1;whiteSpace=wrap;html=1;fillColor=light-dark(#A20025,#FF9C91);fillStyle=dashed;gradientColor=none;strokeColor=light-dark(#A20025,#FFA3A0);dashed=1;dashPattern=1 1;strokeWidth=2;sketch=1;curveFitting=1;jiggle=2;shadow=0;" vertex="1" parent="gzwCgdqreQGhpecsWad8-80">
          <mxGeometry x="210" width="250" height="50" as="geometry" />
        </mxCell>
        <mxCell id="gzwCgdqreQGhpecsWad8-29" value="&lt;h2&gt;&lt;font style=&quot;font-size: 16px;&quot; face=&quot;Garamond&quot;&gt;&lt;i style=&quot;&quot;&gt;API GATEWAY&lt;/i&gt;&lt;/font&gt;&lt;/h2&gt;" style="text;strokeColor=none;align=center;fillColor=none;html=1;verticalAlign=middle;whiteSpace=wrap;rounded=0;fontColor=light-dark(#000000,#000000);" vertex="1" parent="gzwCgdqreQGhpecsWad8-80">
          <mxGeometry x="275" y="10" width="120" height="30" as="geometry" />
        </mxCell>
        <mxCell id="gzwCgdqreQGhpecsWad8-75" style="edgeStyle=orthogonalEdgeStyle;rounded=0;orthogonalLoop=1;jettySize=auto;html=1;entryX=0.855;entryY=0;entryDx=0;entryDy=4.35;curved=1;flowAnimation=1;strokeColor=light-dark(#A20025,#FF2332);entryPerimeter=0;" edge="1" parent="gzwCgdqreQGhpecsWad8-80" target="gzwCgdqreQGhpecsWad8-54">
          <mxGeometry relative="1" as="geometry">
            <mxPoint x="131" y="162" as="sourcePoint" />
            <Array as="points">
              <mxPoint x="131" y="144" />
              <mxPoint x="200" y="144" />
              <mxPoint x="200" y="187" />
              <mxPoint x="135" y="187" />
            </Array>
          </mxGeometry>
        </mxCell>
        <mxCell id="gzwCgdqreQGhpecsWad8-30" value="US" style="rounded=1;whiteSpace=wrap;html=1;fillColor=light-dark(#FFFFFF,#E2F7FF);gradientColor=none;fillStyle=auto;" vertex="1" parent="gzwCgdqreQGhpecsWad8-80">
          <mxGeometry x="40" y="140" width="90" height="50" as="geometry" />
        </mxCell>
        <mxCell id="gzwCgdqreQGhpecsWad8-32" value="US" style="rounded=1;whiteSpace=wrap;html=1;fillColor=light-dark(#FFFFFF,#E2F7FF);gradientColor=none;fillStyle=auto;" vertex="1" parent="gzwCgdqreQGhpecsWad8-80">
          <mxGeometry x="200" y="140" width="90" height="50" as="geometry" />
        </mxCell>
        <mxCell id="gzwCgdqreQGhpecsWad8-33" value="US" style="rounded=1;whiteSpace=wrap;html=1;fillColor=light-dark(#FFFFFF,#E2F7FF);gradientColor=none;fillStyle=auto;" vertex="1" parent="gzwCgdqreQGhpecsWad8-80">
          <mxGeometry x="360" y="140" width="90" height="50" as="geometry" />
        </mxCell>
        <mxCell id="gzwCgdqreQGhpecsWad8-34" value="&lt;h5&gt;&lt;font face=&quot;Garamond&quot; style=&quot;color: light-dark(rgb(0, 0, 0), rgb(0, 0, 0)); font-size: 13px;&quot;&gt;&lt;i style=&quot;&quot;&gt;USER&lt;/i&gt;&lt;/font&gt;&lt;/h5&gt;" style="text;strokeColor=none;align=center;fillColor=none;html=1;verticalAlign=middle;whiteSpace=wrap;rounded=0;" vertex="1" parent="gzwCgdqreQGhpecsWad8-80">
          <mxGeometry x="55" y="150" width="60" height="30" as="geometry" />
        </mxCell>
        <mxCell id="gzwCgdqreQGhpecsWad8-35" value="&lt;h5&gt;&lt;font face=&quot;Garamond&quot; style=&quot;color: light-dark(rgb(0, 0, 0), rgb(0, 0, 0)); font-size: 13px;&quot;&gt;&lt;i style=&quot;&quot;&gt;PRODUCT&lt;/i&gt;&lt;/font&gt;&lt;/h5&gt;" style="text;strokeColor=none;align=center;fillColor=none;html=1;verticalAlign=middle;whiteSpace=wrap;rounded=0;" vertex="1" parent="gzwCgdqreQGhpecsWad8-80">
          <mxGeometry x="215" y="150" width="60" height="30" as="geometry" />
        </mxCell>
        <mxCell id="gzwCgdqreQGhpecsWad8-36" value="&lt;h5&gt;&lt;font face=&quot;Garamond&quot;&gt;&lt;span style=&quot;font-size: 13px;&quot;&gt;&lt;i&gt;ORDER&lt;/i&gt;&lt;/span&gt;&lt;/font&gt;&lt;/h5&gt;" style="text;strokeColor=none;align=center;fillColor=none;html=1;verticalAlign=middle;whiteSpace=wrap;rounded=0;fontColor=light-dark(#000000,#121212);" vertex="1" parent="gzwCgdqreQGhpecsWad8-80">
          <mxGeometry x="375" y="150" width="60" height="30" as="geometry" />
        </mxCell>
        <mxCell id="gzwCgdqreQGhpecsWad8-37" value="US" style="rounded=1;whiteSpace=wrap;html=1;fillColor=light-dark(#FFFFFF,#E2F7FF);gradientColor=none;fillStyle=auto;" vertex="1" parent="gzwCgdqreQGhpecsWad8-80">
          <mxGeometry x="520" y="140" width="125" height="50" as="geometry" />
        </mxCell>
        <mxCell id="gzwCgdqreQGhpecsWad8-38" value="&lt;h5&gt;&lt;font face=&quot;Garamond&quot;&gt;&lt;span style=&quot;font-size: 13px;&quot;&gt;&lt;i&gt;AUTH&lt;/i&gt;&lt;/span&gt;&lt;/font&gt;&lt;/h5&gt;" style="text;strokeColor=none;align=center;fillColor=none;html=1;verticalAlign=middle;whiteSpace=wrap;rounded=0;fontColor=light-dark(#000000,#171717);" vertex="1" parent="gzwCgdqreQGhpecsWad8-80">
          <mxGeometry x="15" y="10" width="60" height="30" as="geometry" />
        </mxCell>
        <mxCell id="gzwCgdqreQGhpecsWad8-39" value="&lt;h5&gt;&lt;font face=&quot;Garamond&quot;&gt;&lt;span style=&quot;font-size: 13px;&quot;&gt;&lt;i&gt;NOTIFICATION&lt;/i&gt;&lt;/span&gt;&lt;/font&gt;&lt;/h5&gt;" style="text;strokeColor=none;align=center;fillColor=none;html=1;verticalAlign=middle;whiteSpace=wrap;rounded=0;fontColor=light-dark(#000000,#000000);" vertex="1" parent="gzwCgdqreQGhpecsWad8-80">
          <mxGeometry x="525" y="150" width="120" height="30" as="geometry" />
        </mxCell>
        <mxCell id="gzwCgdqreQGhpecsWad8-45" value="" style="endArrow=none;html=1;rounded=0;flowAnimation=1;strokeColor=light-dark(#A20025,#FF2332);" edge="1" parent="gzwCgdqreQGhpecsWad8-80">
          <mxGeometry width="50" height="50" relative="1" as="geometry">
            <mxPoint x="330" y="100" as="sourcePoint" />
            <mxPoint x="330" y="50" as="targetPoint" />
          </mxGeometry>
        </mxCell>
        <mxCell id="gzwCgdqreQGhpecsWad8-46" value="" style="endArrow=none;html=1;rounded=0;flowAnimation=1;strokeColor=light-dark(#A20025,#FF2332);" edge="1" parent="gzwCgdqreQGhpecsWad8-80">
          <mxGeometry width="50" height="50" relative="1" as="geometry">
            <mxPoint x="90" y="100" as="sourcePoint" />
            <mxPoint x="570" y="100" as="targetPoint" />
          </mxGeometry>
        </mxCell>
        <mxCell id="gzwCgdqreQGhpecsWad8-47" value="" style="endArrow=classic;html=1;rounded=0;flowAnimation=1;strokeColor=light-dark(#A20025,#FF2332);" edge="1" parent="gzwCgdqreQGhpecsWad8-80">
          <mxGeometry width="50" height="50" relative="1" as="geometry">
            <mxPoint x="90" y="100" as="sourcePoint" />
            <mxPoint x="90" y="138" as="targetPoint" />
          </mxGeometry>
        </mxCell>
        <mxCell id="gzwCgdqreQGhpecsWad8-48" value="" style="endArrow=classic;html=1;rounded=0;flowAnimation=1;strokeColor=light-dark(#A20025,#FF2332);" edge="1" parent="gzwCgdqreQGhpecsWad8-80">
          <mxGeometry width="50" height="50" relative="1" as="geometry">
            <mxPoint x="250" y="100" as="sourcePoint" />
            <mxPoint x="250" y="138" as="targetPoint" />
          </mxGeometry>
        </mxCell>
        <mxCell id="gzwCgdqreQGhpecsWad8-50" value="" style="endArrow=classic;html=1;rounded=0;flowAnimation=1;strokeColor=light-dark(#A20025,#FF2332);" edge="1" parent="gzwCgdqreQGhpecsWad8-80">
          <mxGeometry width="50" height="50" relative="1" as="geometry">
            <mxPoint x="404.71000000000004" y="102" as="sourcePoint" />
            <mxPoint x="404.71000000000004" y="140" as="targetPoint" />
          </mxGeometry>
        </mxCell>
        <mxCell id="gzwCgdqreQGhpecsWad8-51" value="" style="endArrow=classic;html=1;rounded=0;flowAnimation=1;strokeColor=light-dark(#A20025,#FF2332);" edge="1" parent="gzwCgdqreQGhpecsWad8-80">
          <mxGeometry width="50" height="50" relative="1" as="geometry">
            <mxPoint x="570" y="102" as="sourcePoint" />
            <mxPoint x="570" y="140" as="targetPoint" />
          </mxGeometry>
        </mxCell>
        <mxCell id="gzwCgdqreQGhpecsWad8-53" value="" style="endArrow=classic;html=1;rounded=0;flowAnimation=1;exitX=0;exitY=0.5;exitDx=0;exitDy=0;strokeColor=light-dark(#A20025,#FF2332);" edge="1" parent="gzwCgdqreQGhpecsWad8-80" source="gzwCgdqreQGhpecsWad8-26">
          <mxGeometry width="50" height="50" relative="1" as="geometry">
            <mxPoint x="139.43000000000006" y="10" as="sourcePoint" />
            <mxPoint x="91" y="25" as="targetPoint" />
          </mxGeometry>
        </mxCell>
        <mxCell id="gzwCgdqreQGhpecsWad8-54" value="" style="shape=cylinder3;whiteSpace=wrap;html=1;boundedLbl=1;backgroundOutline=1;size=15;fillColor=light-dark(#FFFFFF, #f20707);strokeColor=light-dark(#000000,#000000);dashed=1;sketch=1;curveFitting=1;jiggle=2;snapToPoint=0;fixDash=0;collapsible=0;fillStyle=zigzag;" vertex="1" parent="gzwCgdqreQGhpecsWad8-80">
          <mxGeometry x="106" y="167" width="34" height="54" as="geometry" />
        </mxCell>
        <mxCell id="gzwCgdqreQGhpecsWad8-55" value="" style="shape=cylinder3;whiteSpace=wrap;html=1;boundedLbl=1;backgroundOutline=1;size=15;fillColor=light-dark(#FFFFFF, #f20707);strokeColor=light-dark(#000000,#000000);dashed=1;sketch=1;curveFitting=1;jiggle=2;snapToPoint=0;fixDash=0;collapsible=0;fillStyle=zigzag;" vertex="1" parent="gzwCgdqreQGhpecsWad8-80">
          <mxGeometry x="273" y="170" width="34" height="54" as="geometry" />
        </mxCell>
        <mxCell id="gzwCgdqreQGhpecsWad8-56" value="" style="shape=cylinder3;whiteSpace=wrap;html=1;boundedLbl=1;backgroundOutline=1;size=15;fillColor=light-dark(#FFFFFF, #f20707);strokeColor=light-dark(#000000,#000000);dashed=1;sketch=1;curveFitting=1;jiggle=2;snapToPoint=0;fixDash=0;collapsible=0;fillStyle=zigzag;" vertex="1" parent="gzwCgdqreQGhpecsWad8-80">
          <mxGeometry x="433" y="170" width="34" height="54" as="geometry" />
        </mxCell>
        <mxCell id="gzwCgdqreQGhpecsWad8-57" value="" style="shape=cylinder3;whiteSpace=wrap;html=1;boundedLbl=1;backgroundOutline=1;size=15;fillColor=light-dark(#FFFFFF, #f20707);strokeColor=light-dark(#000000,#000000);dashed=1;sketch=1;curveFitting=1;jiggle=2;snapToPoint=0;fixDash=0;collapsible=0;fillStyle=zigzag;" vertex="1" parent="gzwCgdqreQGhpecsWad8-80">
          <mxGeometry x="627" y="170" width="34" height="54" as="geometry" />
        </mxCell>
        <mxCell id="gzwCgdqreQGhpecsWad8-58" value="" style="shape=cylinder3;whiteSpace=wrap;html=1;boundedLbl=1;backgroundOutline=1;size=15;fillColor=light-dark(#FFFFFF, #f20707);strokeColor=light-dark(#000000,#000000);dashed=1;sketch=1;curveFitting=1;jiggle=2;snapToPoint=0;fixDash=0;collapsible=0;fillStyle=zigzag;" vertex="1" parent="gzwCgdqreQGhpecsWad8-80">
          <mxGeometry x="56" y="30" width="34" height="54" as="geometry" />
        </mxCell>
        <mxCell id="gzwCgdqreQGhpecsWad8-59" value="&lt;h5&gt;&lt;font face=&quot;Garamond&quot;&gt;&lt;span&gt;&lt;i&gt;DB&lt;/i&gt;&lt;/span&gt;&lt;/font&gt;&lt;span style=&quot;color: rgba(0, 0, 0, 0); font-family: monospace; font-size: 0px; font-weight: 400; text-align: start; text-wrap-mode: nowrap; background-color: transparent;&quot;&gt;%3CmxGraphModel%3E%3Croot%3E%3CmxCell%20id%3D%220%22%2F%3E%3CmxCell%20id%3D%221%22%20parent%3D%220%22%2F%3E%3CmxCell%20id%3D%222%22%20value%3D%22%26lt%3Bh5%26gt%3B%26lt%3Bfont%20face%3D%26quot%3BGaramond%26quot%3B%26gt%3B%26lt%3Bspan%26gt%3B%26lt%3Bi%26gt%3BDATABASE%26lt%3B%2Fi%26gt%3B%26lt%3B%2Fspan%26gt%3B%26lt%3B%2Ffont%26gt%3B%26lt%3B%2Fh5%26gt%3B%22%20style%3D%22text%3BstrokeColor%3Dnone%3Balign%3Dcenter%3BfillColor%3Dnone%3Bhtml%3D1%3BverticalAlign%3Dmiddle%3BwhiteSpace%3Dwrap%3Brounded%3D0%3BfontColor%3Dlight-dark(%23000000%2C%23141414)%3BfontSize%3D19%3BfontStyle%3D1%22%20vertex%3D%221%22%20parent%3D%221%22%3E%3CmxGeometry%20x%3D%221355%22%20y%3D%22570%22%20width%3D%2260%22%20height%3D%2230%22%20as%3D%22geometry%22%2F%3E%3C%2FmxCell%3E%3C%2Froot%3E%3C%2FmxGraphModel%3E&lt;/span&gt;&lt;/h5&gt;" style="text;strokeColor=none;align=center;fillColor=none;html=1;verticalAlign=middle;whiteSpace=wrap;rounded=0;fontColor=light-dark(#000000,#141414);fontSize=19;fontStyle=1" vertex="1" parent="gzwCgdqreQGhpecsWad8-80">
          <mxGeometry x="614" y="196" width="60" height="30" as="geometry" />
        </mxCell>
        <mxCell id="gzwCgdqreQGhpecsWad8-60" value="&lt;h5&gt;&lt;font face=&quot;Garamond&quot;&gt;&lt;span&gt;&lt;i&gt;DB&lt;/i&gt;&lt;/span&gt;&lt;/font&gt;&lt;span style=&quot;color: rgba(0, 0, 0, 0); font-family: monospace; font-size: 0px; font-weight: 400; text-align: start; text-wrap-mode: nowrap; background-color: transparent;&quot;&gt;%3CmxGraphModel%3E%3Croot%3E%3CmxCell%20id%3D%220%22%2F%3E%3CmxCell%20id%3D%221%22%20parent%3D%220%22%2F%3E%3CmxCell%20id%3D%222%22%20value%3D%22%26lt%3Bh5%26gt%3B%26lt%3Bfont%20face%3D%26quot%3BGaramond%26quot%3B%26gt%3B%26lt%3Bspan%26gt%3B%26lt%3Bi%26gt%3BDATABASE%26lt%3B%2Fi%26gt%3B%26lt%3B%2Fspan%26gt%3B%26lt%3B%2Ffont%26gt%3B%26lt%3B%2Fh5%26gt%3B%22%20style%3D%22text%3BstrokeColor%3Dnone%3Balign%3Dcenter%3BfillColor%3Dnone%3Bhtml%3D1%3BverticalAlign%3Dmiddle%3BwhiteSpace%3Dwrap%3Brounded%3D0%3BfontColor%3Dlight-dark(%23000000%2C%23141414)%3BfontSize%3D19%3BfontStyle%3D1%22%20vertex%3D%221%22%20parent%3D%221%22%3E%3CmxGeometry%20x%3D%221355%22%20y%3D%22570%22%20width%3D%2260%22%20height%3D%2230%22%20as%3D%22geometry%22%2F%3E%3C%2FmxCell%3E%3C%2Froot%3E%3C%2FmxGraphModel%3E&lt;/span&gt;&lt;/h5&gt;" style="text;strokeColor=none;align=center;fillColor=none;html=1;verticalAlign=middle;whiteSpace=wrap;rounded=0;fontColor=light-dark(#000000,#141414);fontSize=19;fontStyle=1" vertex="1" parent="gzwCgdqreQGhpecsWad8-80">
          <mxGeometry x="420" y="194" width="60" height="30" as="geometry" />
        </mxCell>
        <mxCell id="gzwCgdqreQGhpecsWad8-61" value="&lt;h5&gt;&lt;font face=&quot;Garamond&quot;&gt;&lt;span&gt;&lt;i&gt;DB&lt;/i&gt;&lt;/span&gt;&lt;/font&gt;&lt;span style=&quot;color: rgba(0, 0, 0, 0); font-family: monospace; font-size: 0px; font-weight: 400; text-align: start; text-wrap-mode: nowrap; background-color: transparent;&quot;&gt;%3CmxGraphModel%3E%3Croot%3E%3CmxCell%20id%3D%220%22%2F%3E%3CmxCell%20id%3D%221%22%20parent%3D%220%22%2F%3E%3CmxCell%20id%3D%222%22%20value%3D%22%26lt%3Bh5%26gt%3B%26lt%3Bfont%20face%3D%26quot%3BGaramond%26quot%3B%26gt%3B%26lt%3Bspan%26gt%3B%26lt%3Bi%26gt%3BDATABASE%26lt%3B%2Fi%26gt%3B%26lt%3B%2Fspan%26gt%3B%26lt%3B%2Ffont%26gt%3B%26lt%3B%2Fh5%26gt%3B%22%20style%3D%22text%3BstrokeColor%3Dnone%3Balign%3Dcenter%3BfillColor%3Dnone%3Bhtml%3D1%3BverticalAlign%3Dmiddle%3BwhiteSpace%3Dwrap%3Brounded%3D0%3BfontColor%3Dlight-dark(%23000000%2C%23141414)%3BfontSize%3D19%3BfontStyle%3D1%22%20vertex%3D%221%22%20parent%3D%221%22%3E%3CmxGeometry%20x%3D%221355%22%20y%3D%22570%22%20width%3D%2260%22%20height%3D%2230%22%20as%3D%22geometry%22%2F%3E%3C%2FmxCell%3E%3C%2Froot%3E%3C%2FmxGraphModel%3E&lt;/span&gt;&lt;/h5&gt;" style="text;strokeColor=none;align=center;fillColor=none;html=1;verticalAlign=middle;whiteSpace=wrap;rounded=0;fontColor=light-dark(#000000,#141414);fontSize=19;fontStyle=1" vertex="1" parent="gzwCgdqreQGhpecsWad8-80">
          <mxGeometry x="260" y="196" width="60" height="30" as="geometry" />
        </mxCell>
        <mxCell id="gzwCgdqreQGhpecsWad8-62" value="&lt;h5&gt;&lt;font face=&quot;Garamond&quot;&gt;&lt;span&gt;&lt;i&gt;DB&lt;/i&gt;&lt;/span&gt;&lt;/font&gt;&lt;span style=&quot;color: rgba(0, 0, 0, 0); font-family: monospace; font-size: 0px; font-weight: 400; text-align: start; text-wrap-mode: nowrap; background-color: transparent;&quot;&gt;%3CmxGraphModel%3E%3Croot%3E%3CmxCell%20id%3D%220%22%2F%3E%3CmxCell%20id%3D%221%22%20parent%3D%220%22%2F%3E%3CmxCell%20id%3D%222%22%20value%3D%22%26lt%3Bh5%26gt%3B%26lt%3Bfont%20face%3D%26quot%3BGaramond%26quot%3B%26gt%3B%26lt%3Bspan%26gt%3B%26lt%3Bi%26gt%3BDATABASE%26lt%3B%2Fi%26gt%3B%26lt%3B%2Fspan%26gt%3B%26lt%3B%2Ffont%26gt%3B%26lt%3B%2Fh5%26gt%3B%22%20style%3D%22text%3BstrokeColor%3Dnone%3Balign%3Dcenter%3BfillColor%3Dnone%3Bhtml%3D1%3BverticalAlign%3Dmiddle%3BwhiteSpace%3Dwrap%3Brounded%3D0%3BfontColor%3Dlight-dark(%23000000%2C%23141414)%3BfontSize%3D19%3BfontStyle%3D1%22%20vertex%3D%221%22%20parent%3D%221%22%3E%3CmxGeometry%20x%3D%221355%22%20y%3D%22570%22%20width%3D%2260%22%20height%3D%2230%22%20as%3D%22geometry%22%2F%3E%3C%2FmxCell%3E%3C%2Froot%3E%3C%2FmxGraphModel%3E&lt;/span&gt;&lt;/h5&gt;" style="text;strokeColor=none;align=center;fillColor=none;html=1;verticalAlign=middle;whiteSpace=wrap;rounded=0;fontColor=light-dark(#000000,#141414);fontSize=19;fontStyle=1" vertex="1" parent="gzwCgdqreQGhpecsWad8-80">
          <mxGeometry x="90" y="191" width="60" height="30" as="geometry" />
        </mxCell>
        <mxCell id="gzwCgdqreQGhpecsWad8-63" value="&lt;h5&gt;&lt;font face=&quot;Garamond&quot;&gt;&lt;span&gt;&lt;i&gt;DB&lt;/i&gt;&lt;/span&gt;&lt;/font&gt;&lt;span style=&quot;color: rgba(0, 0, 0, 0); font-family: monospace; font-size: 0px; font-weight: 400; text-align: start; text-wrap-mode: nowrap; background-color: transparent;&quot;&gt;%3CmxGraphModel%3E%3Croot%3E%3CmxCell%20id%3D%220%22%2F%3E%3CmxCell%20id%3D%221%22%20parent%3D%220%22%2F%3E%3CmxCell%20id%3D%222%22%20value%3D%22%26lt%3Bh5%26gt%3B%26lt%3Bfont%20face%3D%26quot%3BGaramond%26quot%3B%26gt%3B%26lt%3Bspan%26gt%3B%26lt%3Bi%26gt%3BDATABASE%26lt%3B%2Fi%26gt%3B%26lt%3B%2Fspan%26gt%3B%26lt%3B%2Ffont%26gt%3B%26lt%3B%2Fh5%26gt%3B%22%20style%3D%22text%3BstrokeColor%3Dnone%3Balign%3Dcenter%3BfillColor%3Dnone%3Bhtml%3D1%3BverticalAlign%3Dmiddle%3BwhiteSpace%3Dwrap%3Brounded%3D0%3BfontColor%3Dlight-dark(%23000000%2C%23141414)%3BfontSize%3D19%3BfontStyle%3D1%22%20vertex%3D%221%22%20parent%3D%221%22%3E%3CmxGeometry%20x%3D%221355%22%20y%3D%22570%22%20width%3D%2260%22%20height%3D%2230%22%20as%3D%22geometry%22%2F%3E%3C%2FmxCell%3E%3C%2Froot%3E%3C%2FmxGraphModel%3E&lt;/span&gt;&lt;/h5&gt;" style="text;strokeColor=none;align=center;fillColor=none;html=1;verticalAlign=middle;whiteSpace=wrap;rounded=0;fontColor=light-dark(#000000,#141414);fontSize=19;fontStyle=1" vertex="1" parent="gzwCgdqreQGhpecsWad8-80">
          <mxGeometry x="43" y="54" width="60" height="30" as="geometry" />
        </mxCell>
        <mxCell id="gzwCgdqreQGhpecsWad8-65" style="edgeStyle=orthogonalEdgeStyle;rounded=0;orthogonalLoop=1;jettySize=auto;html=1;flowAnimation=1;strokeColor=light-dark(#A20025,#FF9C91);" edge="1" parent="gzwCgdqreQGhpecsWad8-80" source="gzwCgdqreQGhpecsWad8-64">
          <mxGeometry relative="1" as="geometry">
            <mxPoint x="78.28571428571422" y="191.28571428571422" as="targetPoint" />
          </mxGeometry>
        </mxCell>
        <mxCell id="gzwCgdqreQGhpecsWad8-66" style="edgeStyle=orthogonalEdgeStyle;rounded=0;orthogonalLoop=1;jettySize=auto;html=1;flowAnimation=1;strokeColor=light-dark(#A20025,#FF9C91);" edge="1" parent="gzwCgdqreQGhpecsWad8-80" source="gzwCgdqreQGhpecsWad8-64">
          <mxGeometry relative="1" as="geometry">
            <mxPoint x="593.1428571428573" y="191.28571428571422" as="targetPoint" />
          </mxGeometry>
        </mxCell>
        <mxCell id="gzwCgdqreQGhpecsWad8-68" style="edgeStyle=orthogonalEdgeStyle;rounded=0;orthogonalLoop=1;jettySize=auto;html=1;flowAnimation=1;strokeColor=light-dark(#A20025,#FF9C91);" edge="1" parent="gzwCgdqreQGhpecsWad8-80" source="gzwCgdqreQGhpecsWad8-64">
          <mxGeometry relative="1" as="geometry">
            <mxPoint x="408" y="190.71428571428578" as="targetPoint" />
            <Array as="points">
              <mxPoint x="373" y="237" />
              <mxPoint x="409" y="237" />
              <mxPoint x="409" y="191" />
            </Array>
          </mxGeometry>
        </mxCell>
        <mxCell id="gzwCgdqreQGhpecsWad8-69" value="" style="edgeStyle=orthogonalEdgeStyle;rounded=0;orthogonalLoop=1;jettySize=auto;html=1;flowAnimation=1;strokeColor=light-dark(#A20025,#FF9C91);" edge="1" parent="gzwCgdqreQGhpecsWad8-80" source="gzwCgdqreQGhpecsWad8-64">
          <mxGeometry relative="1" as="geometry">
            <mxPoint x="243" y="191" as="targetPoint" />
            <Array as="points">
              <mxPoint x="310" y="238" />
              <mxPoint x="243" y="238" />
            </Array>
          </mxGeometry>
        </mxCell>
        <mxCell id="gzwCgdqreQGhpecsWad8-64" value="" style="rounded=1;whiteSpace=wrap;html=1;fillColor=light-dark(#A20025,#FF052E);dashed=1;strokeColor=light-dark(#A20025,#FF052E);fillStyle=dashed;" vertex="1" parent="gzwCgdqreQGhpecsWad8-80">
          <mxGeometry x="130" y="283" width="431" height="44" as="geometry" />
        </mxCell>
        <mxCell id="gzwCgdqreQGhpecsWad8-71" value="&lt;h1&gt;&lt;span style=&quot;font-size: 13px;&quot;&gt;&lt;font style=&quot;color: light-dark(rgb(0, 0, 0), rgb(0, 0, 0));&quot; face=&quot;Georgia&quot;&gt;&lt;i style=&quot;&quot;&gt;EVENT SYSTEM&lt;/i&gt;&lt;/font&gt;&lt;/span&gt;&lt;/h1&gt;" style="text;align=center;html=1;verticalAlign=middle;whiteSpace=wrap;rounded=0;" vertex="1" parent="gzwCgdqreQGhpecsWad8-80">
          <mxGeometry x="255" y="290" width="169" height="30" as="geometry" />
        </mxCell>
        <mxCell id="gzwCgdqreQGhpecsWad8-77" value="&lt;h5&gt;&lt;font style=&quot;color: light-dark(rgb(0, 0, 0), rgb(0, 0, 0));&quot; face=&quot;Garamond&quot;&gt;&lt;span style=&quot;font-size: 13px;&quot;&gt;&lt;i style=&quot;&quot;&gt;gRPC&lt;/i&gt;&lt;/span&gt;&lt;/font&gt;&lt;/h5&gt;" style="text;strokeColor=none;align=center;fillColor=none;html=1;verticalAlign=middle;whiteSpace=wrap;rounded=0;" vertex="1" parent="gzwCgdqreQGhpecsWad8-80">
          <mxGeometry x="135" y="148" width="60" height="30" as="geometry" />
        </mxCell>
        <mxCell id="gzwCgdqreQGhpecsWad8-78" value="&lt;h5&gt;&lt;font style=&quot;color: light-dark(rgb(0, 0, 0), rgb(0, 0, 0));&quot; face=&quot;Garamond&quot;&gt;&lt;span style=&quot;font-size: 13px;&quot;&gt;&lt;i style=&quot;&quot;&gt;REST&lt;/i&gt;&lt;/span&gt;&lt;/font&gt;&lt;/h5&gt;&lt;div&gt;&lt;font style=&quot;color: light-dark(rgb(0, 0, 0), rgb(0, 0, 0));&quot; face=&quot;Garamond&quot;&gt;&lt;span style=&quot;font-size: 13px;&quot;&gt;&lt;i style=&quot;&quot;&gt;&lt;br&gt;&lt;/i&gt;&lt;/span&gt;&lt;/font&gt;&lt;/div&gt;" style="text;strokeColor=none;align=center;fillColor=none;html=1;verticalAlign=middle;whiteSpace=wrap;rounded=0;" vertex="1" parent="gzwCgdqreQGhpecsWad8-80">
          <mxGeometry x="457" y="160" width="60" height="30" as="geometry" />
        </mxCell>
      </root>
    </mxGraphModel>
  </diagram>
</mxfile>
